<?xml version="1.0" standalone="no"?>
<!DOCTYPE svg PUBLIC "-//W3C//DTD SVG 20010904//EN"
 "http://www.w3.org/TR/2001/REC-SVG-20010904/DTD/svg10.dtd">
<svg version="1.0" xmlns="http://www.w3.org/2000/svg"
 width="460.000000pt" height="460.000000pt" viewBox="0 0 460.000000 460.000000"
 preserveAspectRatio="xMidYMid meet">
<metadata>
Created by potrace 1.14, written by Peter Selinger 2001-2017
</metadata>
<g transform="translate(0.000000,460.000000) scale(0.100000,-0.100000)"
fill="#000000" stroke="none">
<path d="M2188 4575 c-2 -2 -39 -6 -83 -9 -81 -6 -102 -9 -210 -27 -634 -107
-1228 -523 -1562 -1094 -96 -163 -222 -483 -252 -636 -6 -30 -12 -63 -14 -74
-3 -11 -8 -40 -12 -65 -4 -25 -9 -54 -11 -65 -8 -42 -18 -204 -18 -300 0 -374
79 -706 249 -1040 42 -83 136 -240 167 -280 5 -5 36 -46 70 -90 77 -102 300
-323 398 -396 424 -317 891 -474 1398 -471 236 1 438 30 647 94 39 12 72 22
75 23 3 1 14 5 25 10 11 4 49 19 85 32 199 76 451 226 625 373 43 36 224 217
273 273 104 120 247 343 323 505 84 181 157 417 184 596 38 262 38 509 -1 736
-4 19 -8 44 -9 55 -6 44 -57 240 -81 308 -299 855 -1048 1446 -1943 1533 -58
5 -319 13 -323 9z"/>
</g>
</svg>
